<?xml version="1.0" encoding="UTF-8" standalone="no"?>
<!-- Created with Inkscape (http://www.inkscape.org/) -->

<svg
   width="182mm"
   height="119mm"
   viewBox="0 0 182 119"
   version="1.1"
   id="svg60207"
   inkscape:version="1.1.1 (3bf5ae0d25, 2021-09-20)"
   sodipodi:docname="librarypool.svg"
   xmlns:inkscape="http://www.inkscape.org/namespaces/inkscape"
   xmlns:sodipodi="http://sodipodi.sourceforge.net/DTD/sodipodi-0.dtd"
   xmlns="http://www.w3.org/2000/svg"
   xmlns:svg="http://www.w3.org/2000/svg">
  <sodipodi:namedview
     id="namedview60209"
     pagecolor="#ffffff"
     bordercolor="#666666"
     borderopacity="1.0"
     inkscape:pageshadow="2"
     inkscape:pageopacity="0.0"
     inkscape:pagecheckerboard="0"
     inkscape:document-units="mm"
     showgrid="false"
     width="209mm"
     inkscape:zoom="0.74118967"
     inkscape:cx="10.118867"
     inkscape:cy="236.7815"
     inkscape:window-width="1920"
     inkscape:window-height="1017"
     inkscape:window-x="-8"
     inkscape:window-y="-8"
     inkscape:window-maximized="1"
     inkscape:current-layer="layer1" />
  <defs
     id="defs60204">
    <rect
       x="-534.27618"
       y="677.28949"
       width="1141.4082"
       height="49.919746"
       id="rect5147" />
    <rect
       x="-134.91823"
       y="600.38611"
       width="1600.1302"
       height="51.268929"
       id="rect24605" />
    <rect
       x="-372.37433"
       y="465.4679"
       width="406.10388"
       height="49.919746"
       id="rect36091" />
    <rect
       x="-372.37433"
       y="465.4679"
       width="406.10388"
       height="49.919746"
       id="rect36091-5" />
    <rect
       x="-372.37433"
       y="465.4679"
       width="406.10388"
       height="49.919746"
       id="rect36091-4" />
  </defs>
  <g
     inkscape:label="Layer 1"
     inkscape:groupmode="layer"
     id="layer1">
    <path
       style="fill:#ffffff;fill-opacity:0;stroke-width:0.0583877"
       id="path44310-4"
       d="m 95.51935,138.34535 c 0.0575,-0.012 0.11489,-0.032 0.17251,-0.036 0.76275,-0.0521 1.52788,0.16051 2.28807,0.32531 0,0 0.36076,-0.79951 0.36076,-0.79951 v 0 c -0.48,-0.0859 -0.95979,-0.18179 -1.43977,-0.26846 -0.0301,-0.005 -0.72966,-0.12586 -0.82245,-0.13383 -0.0544,-0.005 -0.10882,0.007 -0.16324,0.01 0,0 -0.39588,0.90265 -0.39588,0.90265 z" />
    <rect
       style="fill:#000000;fill-opacity:0;stroke-width:0.0583877"
       id="rect45753-56"
       width="7.6611485"
       height="0.83107257"
       x="92.86454"
       y="137.35654" />
    <rect
       style="fill:#000000;fill-opacity:0;stroke-width:0.0583877"
       id="rect46210-4"
       width="13.220759"
       height="0.88346094"
       x="92.86454"
       y="137.44266" />
    <path
       style="fill:#ffffff;fill-opacity:0;stroke-width:0.0583877"
       id="path44310-0"
       d="m 54.82464,176.54127 c 0.0575,-0.012 0.11489,-0.032 0.17251,-0.036 0.76275,-0.0521 1.52788,0.16051 2.28807,0.32531 0,0 0.36076,-0.79951 0.36076,-0.79951 v 0 c -0.48,-0.0859 -0.95979,-0.18179 -1.43977,-0.26846 -0.0301,-0.005 -0.72966,-0.12586 -0.82245,-0.13383 -0.0544,-0.005 -0.10882,0.007 -0.16324,0.01 0,0 -0.39588,0.90265 -0.39588,0.90265 z" />
    <rect
       style="fill:#000000;fill-opacity:0;stroke-width:0.0583877"
       id="rect45753-1"
       width="7.6611485"
       height="0.83107257"
       x="52.169827"
       y="175.55246" />
    <rect
       style="fill:#000000;fill-opacity:0;stroke-width:0.0583877"
       id="rect46210-1"
       width="13.220759"
       height="0.88346094"
       x="52.169827"
       y="175.63858" />
    <path
       style="fill:#ffffff;fill-opacity:0;stroke-width:0.0583877"
       id="path44310-55"
       d="m 49.82704,176.54127 c 0.0575,-0.012 0.11489,-0.032 0.17251,-0.036 0.76275,-0.0521 1.52788,0.16051 2.28807,0.32531 0,0 0.36076,-0.79951 0.36076,-0.79951 v 0 c -0.48,-0.0859 -0.95979,-0.18179 -1.43977,-0.26846 -0.0301,-0.005 -0.72966,-0.12586 -0.82245,-0.13383 -0.0544,-0.005 -0.10882,0.007 -0.16324,0.01 0,0 -0.39588,0.90265 -0.39588,0.90265 z" />
    <rect
       style="fill:#000000;fill-opacity:0;stroke-width:0.0583877"
       id="rect45753-3"
       width="7.6611485"
       height="0.83107257"
       x="47.17223"
       y="175.55246" />
    <rect
       style="fill:#000000;fill-opacity:0;stroke-width:0.0583877"
       id="rect46210-8"
       width="13.220759"
       height="0.88346094"
       x="47.17223"
       y="175.63858" />
    <path
       style="fill:#ffffff;fill-opacity:0;stroke-width:0.0583877"
       id="path44310-7"
       d="m 64.46286,186.89343 c 0.0575,-0.012 0.11489,-0.032 0.17251,-0.036 0.76275,-0.0521 1.52788,0.16051 2.28807,0.32531 0,0 0.36076,-0.79951 0.36076,-0.79951 v 0 c -0.48,-0.0859 -0.95979,-0.18179 -1.43977,-0.26846 -0.0301,-0.005 -0.72966,-0.12586 -0.82245,-0.13383 -0.0544,-0.005 -0.10882,0.007 -0.16324,0.01 0,0 -0.39588,0.90265 -0.39588,0.90265 z" />
    <rect
       style="fill:#000000;fill-opacity:0;stroke-width:0.0583877"
       id="rect45753-12"
       width="7.6611485"
       height="0.83107257"
       x="61.808048"
       y="185.90462" />
    <rect
       style="fill:#000000;fill-opacity:0;stroke-width:0.0583877"
       id="rect46210-08"
       width="13.220759"
       height="0.88346094"
       x="61.808048"
       y="185.99074" />
    <g
       id="g114629"
       transform="translate(-19.844314,-7.1394211)">
      <rect
         style="fill:#69b628;fill-rule:evenodd;stroke-width:0.063191"
         id="rect85"
         width="22.66983"
         height="3.1857774"
         x="37.48196"
         y="50.796562" />
      <rect
         style="fill:#666ac2;fill-rule:evenodd;stroke-width:0.0626594"
         id="rect85-8"
         width="36.916878"
         height="3.1857774"
         x="66.961693"
         y="50.796562" />
      <rect
         style="fill:#c83737;fill-rule:evenodd;stroke-width:0.0346339"
         id="rect85-7"
         width="6.8099089"
         height="3.1857774"
         x="60.151791"
         y="50.796562" />
      <path
         style="fill:#ffffff;fill-opacity:0;stroke-width:0.0583877"
         id="path44310"
         d="m 41.973656,59.334267 c 0.0575,-0.012 0.11489,-0.032 0.17251,-0.036 0.76275,-0.0521 1.52788,0.16051 2.28807,0.32531 0,0 0.36076,-0.79951 0.36076,-0.79951 v 0 c -0.48,-0.0859 -0.95979,-0.18179 -1.43977,-0.26846 -0.0301,-0.005 -0.72966,-0.12586 -0.82245,-0.13383 -0.0544,-0.005 -0.10882,0.007 -0.16324,0.01 0,0 -0.39588,0.90265 -0.39588,0.90265 z" />
      <rect
         style="fill:#000000;fill-opacity:0;stroke-width:0.0583877"
         id="rect45753"
         width="7.6611485"
         height="0.83107257"
         x="39.318844"
         y="58.345459" />
      <rect
         style="fill:#000000;fill-opacity:0;stroke-width:0.0583877"
         id="rect46210"
         width="13.220759"
         height="0.88346094"
         x="39.318844"
         y="58.43158" />
      <g
         id="g114563"
         transform="rotate(180,61.577515,35.018319)">
        <rect
           style="fill:#69b628;fill-rule:evenodd;stroke-width:0.063191"
           id="rect85-85"
           width="22.66983"
           height="3.1857774"
           x="-41.589302"
           y="-36.43272"
           transform="scale(-1)" />
        <rect
           style="fill:#666ac2;fill-rule:evenodd;stroke-width:0.0626594"
           id="rect85-8-1"
           width="36.916878"
           height="3.1857774"
           x="-85.316086"
           y="-36.43272"
           transform="scale(-1)" />
        <rect
           style="fill:#c83737;fill-rule:evenodd;stroke-width:0.0346339"
           id="rect85-7-3"
           width="6.8099089"
           height="3.1857774"
           x="-48.399212"
           y="-36.432724"
           transform="scale(-1)" />
      </g>
      <path
         style="fill:#ffffff;fill-opacity:0;stroke-width:0.0583877"
         id="path44310-6"
         d="m 42.330642,42.141623 c 0.0575,-0.012 0.11489,-0.032 0.17251,-0.036 0.76275,-0.0521 1.52788,0.16051 2.28807,0.32531 0,0 0.36076,-0.79951 0.36076,-0.79951 v 0 c -0.48,-0.0859 -0.95979,-0.18179 -1.43977,-0.26846 -0.0301,-0.005 -0.72966,-0.12586 -0.82245,-0.13383 -0.0544,-0.005 -0.10882,0.007 -0.16324,0.01 0,0 -0.39588,0.90265 -0.39588,0.90265 z" />
      <rect
         style="fill:#000000;fill-opacity:0;stroke-width:0.0583877"
         id="rect45753-5"
         width="7.6611485"
         height="0.83107257"
         x="39.675827"
         y="41.152817" />
      <rect
         style="fill:#000000;fill-opacity:0;stroke-width:0.0583877"
         id="rect46210-3"
         width="13.220759"
         height="0.88346094"
         x="39.675827"
         y="41.238937" />
      <path
         style="fill:#ffffff;fill-opacity:0;stroke-width:0.0583877"
         id="path44310-8"
         d="m 27.337857,77.124803 c 0.0575,-0.012 0.11489,-0.032 0.17251,-0.036 0.76275,-0.0521 1.527879,0.16051 2.288069,0.32531 0,0 0.36076,-0.79951 0.36076,-0.79951 v 0 c -0.48,-0.0859 -0.95979,-0.18179 -1.439769,-0.26846 -0.0301,-0.005 -0.72966,-0.12586 -0.82245,-0.13383 -0.0544,-0.005 -0.10882,0.007 -0.16324,0.01 0,0 -0.39588,0.90265 -0.39588,0.90265 z" />
      <rect
         style="fill:#69b628;fill-rule:evenodd;stroke-width:0.063191"
         id="rect85-2"
         width="22.66983"
         height="3.1857774"
         x="88.82093"
         y="42.278084" />
      <rect
         style="fill:#666ac2;fill-rule:evenodd;stroke-width:0.0626594"
         id="rect85-8-8"
         width="36.916878"
         height="3.1857774"
         x="118.30067"
         y="42.278084" />
      <rect
         style="fill:#c83737;fill-rule:evenodd;stroke-width:0.0346339"
         id="rect85-7-93"
         width="6.8099089"
         height="3.1857774"
         x="111.49076"
         y="42.278084" />
      <path
         style="fill:#ffffff;fill-opacity:0;stroke-width:0.0583877"
         id="path44310-5"
         d="m 93.31263,50.815788 c 0.0575,-0.012 0.11489,-0.032 0.17251,-0.036 0.76275,-0.0521 1.52788,0.16051 2.28807,0.32531 0,0 0.36076,-0.79951 0.36076,-0.79951 v 0 c -0.48,-0.0859 -0.95979,-0.18179 -1.43977,-0.26846 -0.0301,-0.005 -0.72966,-0.12586 -0.82245,-0.13383 -0.0544,-0.005 -0.10882,0.007 -0.16324,0.01 0,0 -0.39588,0.90265 -0.39588,0.90265 z" />
      <rect
         style="fill:#000000;fill-opacity:0;stroke-width:0.0583877"
         id="rect45753-4"
         width="7.6611485"
         height="0.83107257"
         x="90.657814"
         y="49.826981" />
      <rect
         style="fill:#000000;fill-opacity:0;stroke-width:0.0583877"
         id="rect46210-9"
         width="13.220759"
         height="0.88346094"
         x="90.657814"
         y="49.913101" />
      <rect
         style="fill:#69b628;fill-rule:evenodd;stroke-width:0.063191"
         id="rect85-1"
         width="22.66983"
         height="3.1857774"
         x="52.539604"
         y="58.43158" />
      <rect
         style="fill:#666ac2;fill-rule:evenodd;stroke-width:0.0626594"
         id="rect85-8-15"
         width="36.916878"
         height="3.1857774"
         x="82.019341"
         y="58.43158" />
      <rect
         style="fill:#c83737;fill-rule:evenodd;stroke-width:0.0346339"
         id="rect85-7-0"
         width="6.8099089"
         height="3.1857774"
         x="75.209435"
         y="58.43158" />
      <g
         id="g114546"
         transform="rotate(180,46.584729,71.364533)">
        <rect
           style="fill:#69b628;fill-rule:evenodd;stroke-width:0.063191"
           id="rect85-3"
           width="22.66983"
           height="3.1857774"
           x="3.9266911"
           y="68.230118" />
        <rect
           style="fill:#666ac2;fill-rule:evenodd;stroke-width:0.0626594"
           id="rect85-8-6"
           width="36.916878"
           height="3.1857774"
           x="33.406418"
           y="68.230118" />
        <rect
           style="fill:#c83737;fill-rule:evenodd;stroke-width:0.0346339"
           id="rect85-7-9"
           width="6.8099089"
           height="3.1857774"
           x="26.596518"
           y="68.230118" />
        <rect
           style="fill:#000000;fill-opacity:0;stroke-width:0.0583877"
           id="rect45753-55"
           width="7.6611485"
           height="0.83107257"
           x="5.7635756"
           y="75.779015" />
        <rect
           style="fill:#000000;fill-opacity:0;stroke-width:0.0583877"
           id="rect46210-2"
           width="13.220759"
           height="0.88346094"
           x="5.763576"
           y="75.865135" />
        <path
           style="fill:#ffffff;fill-opacity:0;stroke-width:0.0583877"
           id="path44310-2"
           d="m 38.111829,66.612312 c 0.0575,-0.012 0.11489,-0.032 0.17251,-0.036 0.76275,-0.0521 1.52788,0.16051 2.28807,0.32531 0,0 0.36076,-0.79951 0.36076,-0.79951 v 0 c -0.48,-0.0859 -0.95979,-0.18179 -1.43977,-0.26846 -0.0301,-0.005 -0.72966,-0.12586 -0.82245,-0.13383 -0.0544,-0.005 -0.10882,0.007 -0.16324,0.01 0,0 -0.39588,0.90265 -0.39588,0.90265 z" />
        <rect
           style="fill:#000000;fill-opacity:0;stroke-width:0.0583877"
           id="rect45753-8"
           width="7.6611485"
           height="0.83107257"
           x="35.457016"
           y="65.623497" />
        <rect
           style="fill:#000000;fill-opacity:0;stroke-width:0.0583877"
           id="rect46210-7"
           width="13.220759"
           height="0.88346094"
           x="35.457016"
           y="65.709618" />
      </g>
      <rect
         style="fill:#69b628;fill-rule:evenodd;stroke-width:0.063191"
         id="rect85-26"
         width="22.66983"
         height="3.1857774"
         x="115.65865"
         y="32.176033" />
      <rect
         style="fill:#666ac2;fill-rule:evenodd;stroke-width:0.0626594"
         id="rect85-8-0"
         width="36.916878"
         height="3.1857774"
         x="145.13838"
         y="32.176033" />
      <rect
         style="fill:#c83737;fill-rule:evenodd;stroke-width:0.0346339"
         id="rect85-7-935"
         width="6.8099089"
         height="3.1857774"
         x="138.32848"
         y="32.176033" />
      <path
         style="fill:#ffffff;fill-opacity:0;stroke-width:0.0583877"
         id="path44310-67"
         d="m 121.59103,61.636588 c 0.0575,-0.012 0.11489,-0.032 0.17251,-0.036 0.76275,-0.0521 1.52788,0.16051 2.28807,0.32531 0,0 0.36076,-0.79951 0.36076,-0.79951 v 0 c -0.48,-0.0859 -0.95979,-0.18179 -1.43977,-0.26846 -0.0301,-0.005 -0.72966,-0.12586 -0.82245,-0.13383 -0.0544,-0.005 -0.10882,0.007 -0.16324,0.01 0,0 -0.39588,0.90265 -0.39588,0.90265 z" />
      <g
         id="g114553"
         transform="rotate(180,147.11092,53.980376)">
        <rect
           style="fill:#69b628;fill-rule:evenodd;stroke-width:0.063191"
           id="rect85-6"
           width="22.66983"
           height="3.1857774"
           x="98.179855"
           y="52.741913" />
        <rect
           style="fill:#666ac2;fill-rule:evenodd;stroke-width:0.0626594"
           id="rect85-8-2"
           width="36.916878"
           height="3.1857774"
           x="127.6596"
           y="52.741913" />
        <rect
           style="fill:#c83737;fill-rule:evenodd;stroke-width:0.0346339"
           id="rect85-7-7"
           width="6.8099089"
           height="3.1857774"
           x="120.84969"
           y="52.741913" />
        <rect
           style="fill:#000000;fill-opacity:0;stroke-width:0.0583877"
           id="rect45753-2"
           width="7.6611485"
           height="0.83107257"
           x="100.01674"
           y="60.290802" />
        <rect
           style="fill:#000000;fill-opacity:0;stroke-width:0.0583877"
           id="rect46210-6"
           width="13.220759"
           height="0.88346094"
           x="100.01674"
           y="60.376923" />
      </g>
      <rect
         style="fill:#69b628;fill-rule:evenodd;stroke-width:0.063191"
         id="rect85-4"
         width="22.66983"
         height="3.1857774"
         x="63.897835"
         y="80.724113" />
      <rect
         style="fill:#666ac2;fill-rule:evenodd;stroke-width:0.0626594"
         id="rect85-8-09"
         width="36.916878"
         height="3.1857774"
         x="93.377563"
         y="80.724113" />
      <rect
         style="fill:#c83737;fill-rule:evenodd;stroke-width:0.0346339"
         id="rect85-7-933"
         width="6.8099089"
         height="3.1857774"
         x="86.567657"
         y="80.724113" />
      <path
         style="fill:#ffffff;fill-opacity:0;stroke-width:0.0583877"
         id="path44310-82"
         d="m 68.38953,89.261823 c 0.0575,-0.012 0.11489,-0.032 0.17251,-0.036 0.76275,-0.0521 1.52788,0.16051 2.28807,0.32531 0,0 0.36076,-0.79951 0.36076,-0.79951 v 0 c -0.48,-0.0859 -0.95979,-0.18179 -1.43977,-0.26846 -0.0301,-0.005 -0.72966,-0.12586 -0.82245,-0.13383 -0.0544,-0.005 -0.10882,0.007 -0.16324,0.01 0,0 -0.39588,0.90265 -0.39588,0.90265 z" />
      <rect
         style="fill:#000000;fill-opacity:0;stroke-width:0.0583877"
         id="rect45753-9"
         width="7.6611485"
         height="0.83107257"
         x="65.734718"
         y="88.273018" />
      <rect
         style="fill:#000000;fill-opacity:0;stroke-width:0.0583877"
         id="rect46210-0"
         width="13.220759"
         height="0.88346094"
         x="65.734718"
         y="88.359138" />
      <rect
         style="fill:#69b628;fill-rule:evenodd;stroke-width:0.063191"
         id="rect85-5"
         width="22.66983"
         height="3.1857774"
         x="113.51682"
         y="69.658005" />
      <rect
         style="fill:#666ac2;fill-rule:evenodd;stroke-width:0.0626594"
         id="rect85-8-7"
         width="36.916878"
         height="3.1857774"
         x="142.99657"
         y="69.658005" />
      <rect
         style="fill:#c83737;fill-rule:evenodd;stroke-width:0.0346339"
         id="rect85-7-2"
         width="6.8099089"
         height="3.1857774"
         x="136.18666"
         y="69.658005" />
      <rect
         style="fill:#69b628;fill-rule:evenodd;stroke-width:0.063191"
         id="rect85-33"
         width="22.66983"
         height="3.1857774"
         x="108.51923"
         y="69.658005" />
      <rect
         style="fill:#666ac2;fill-rule:evenodd;stroke-width:0.0626594"
         id="rect85-8-3"
         width="36.916878"
         height="3.1857774"
         x="137.99896"
         y="69.658005" />
      <rect
         style="fill:#c83737;fill-rule:evenodd;stroke-width:0.0346339"
         id="rect85-7-23"
         width="6.8099089"
         height="3.1857774"
         x="131.18904"
         y="69.658005" />
      <g
         id="g114558"
         transform="rotate(180,141.53907,91.776744)">
        <rect
           style="fill:#69b628;fill-rule:evenodd;stroke-width:0.063191"
           id="rect85-0"
           width="22.66983"
           height="3.1857774"
           x="98.881012"
           y="90.005371" />
        <rect
           style="fill:#666ac2;fill-rule:evenodd;stroke-width:0.0626594"
           id="rect85-8-03"
           width="36.916878"
           height="3.1857774"
           x="128.36076"
           y="90.005371" />
        <rect
           style="fill:#c83737;fill-rule:evenodd;stroke-width:0.0346339"
           id="rect85-7-4"
           width="6.8099089"
           height="3.1857774"
           x="121.55083"
           y="90.005371" />
      </g>
      <rect
         style="fill:#69b628;fill-rule:evenodd;stroke-width:0.063191"
         id="rect85-87"
         width="22.66983"
         height="3.1857774"
         x="28.557692"
         y="97.501762" />
      <rect
         style="fill:#666ac2;fill-rule:evenodd;stroke-width:0.0626594"
         id="rect85-8-83"
         width="36.916878"
         height="3.1857774"
         x="58.03743"
         y="97.501762" />
      <rect
         style="fill:#c83737;fill-rule:evenodd;stroke-width:0.0346339"
         id="rect85-7-07"
         width="6.8099089"
         height="3.1857774"
         x="51.227524"
         y="97.501762" />
      <path
         style="fill:#ffffff;fill-opacity:0;stroke-width:0.0583877"
         id="path44310-85"
         d="m 33.049386,106.03946 c 0.0575,-0.012 0.11489,-0.032 0.17251,-0.036 0.76275,-0.0521 1.52788,0.16051 2.28807,0.32531 0,0 0.36076,-0.79951 0.36076,-0.79951 v 0 c -0.48,-0.0859 -0.95979,-0.18179 -1.43977,-0.26846 -0.0301,-0.005 -0.72966,-0.12586 -0.82245,-0.13383 -0.0544,-0.005 -0.10882,0.007 -0.16324,0.01 0,0 -0.39588,0.90265 -0.39588,0.90265 z" />
      <rect
         style="fill:#000000;fill-opacity:0;stroke-width:0.0583877"
         id="rect45753-83"
         width="7.6611485"
         height="0.83107257"
         x="30.394575"
         y="105.05065" />
      <rect
         style="fill:#000000;fill-opacity:0;stroke-width:0.0583877"
         id="rect46210-63"
         width="13.220759"
         height="0.88346094"
         x="30.394575"
         y="105.13677" />
    </g>
  </g>
</svg>
